<svg id="Layer_1" data-name="Layer 1" xmlns="http://www.w3.org/2000/svg" viewBox="0 0 238.84 38"><defs><style>.cls-1{fill:#fff;}.cls-2{fill:#f25022;}.cls-3{fill:#7fba00;}.cls-4{fill:#00a4ef;}.cls-5{fill:#ffb900;}</style></defs><path id="Shape" class="cls-1" d="M178.9,9l7.61,20.16h-3.86l-1.79-5h-8l-1.73,5h-3.83L175,9Zm-2.09,3.72-3,8.48h6l-2.95-8.48Z"/><polygon id="Path" class="cls-1" points="188.21 14.73 199.76 14.73 199.76 16.09 192.18 26.48 199.81 26.48 199.81 29.17 187.69 29.17 187.69 27.57 195.16 17.43 188.21 17.43 188.21 14.73"/><path id="Path-2" data-name="Path" class="cls-1" d="M214.29,14.73V29.17h-3.42v-1.9h-.05A4.54,4.54,0,0,1,209,28.81a5.42,5.42,0,0,1-2.54.55,5,5,0,0,1-3.83-1.43,6.31,6.31,0,0,1-1.32-4.42V14.73h3.45V23.1a4.37,4.37,0,0,0,.73,2.74,2.58,2.58,0,0,0,2.17.93,2.93,2.93,0,0,0,2.32-1,3.88,3.88,0,0,0,.86-2.65V14.73Z"/><path id="Path-3" data-name="Path" class="cls-1" d="M224.53,14.5a5.71,5.71,0,0,1,.73.05,2.65,2.65,0,0,1,.54.13v3.45a2.69,2.69,0,0,0-.77-.36,3.79,3.79,0,0,0-1.25-.18,2.62,2.62,0,0,0-2.11,1,5.1,5.1,0,0,0-.86,3.24v7.3H217.4V14.73h3.41V17h.05a3.89,3.89,0,0,1,1.4-1.84A4,4,0,0,1,224.53,14.5Z"/><path id="Shape-2" data-name="Shape" class="cls-1" d="M238.06,25.55v2.78a7.07,7.07,0,0,1-2.2.87,12.91,12.91,0,0,1-2.9.34,6.72,6.72,0,0,1-5.14-1.95A7.62,7.62,0,0,1,226,22.15a8,8,0,0,1,1.95-5.54,6.35,6.35,0,0,1,5-2.17,6,6,0,0,1,4.65,1.83,7.2,7.2,0,0,1,1.66,5.06V23h-9.9a4.08,4.08,0,0,0,1.41,3,5,5,0,0,0,3,.86,7.38,7.38,0,0,0,2.34-.36A7.89,7.89,0,0,0,238.06,25.55Zm-2.18-5.06a3.73,3.73,0,0,0-.77-2.56,2.78,2.78,0,0,0-2.2-.89,3.17,3.17,0,0,0-2.2.89,4.53,4.53,0,0,0-1.3,2.58Z"/><path id="Shape-3" data-name="Shape" class="cls-1" d="M66.63,9V29.17h-3.5V13.37h0l-6.27,15.8H54.51l-6.43-15.8h0v15.8H44.79V9h5L55.6,24h.09L61.82,9Zm2.93,1.55a1.83,1.83,0,0,1,.61-1.41,2.15,2.15,0,0,1,1.45-.57,2.12,2.12,0,0,1,1.5.59,1.91,1.91,0,0,1,.59,1.41A1.78,1.78,0,0,1,73.1,12a2.19,2.19,0,0,1-1.48.57A2,2,0,0,1,70.15,12,2.06,2.06,0,0,1,69.56,10.56Zm3.77,4.17V29.17H69.92V14.73Zm10.33,12a5.24,5.24,0,0,0,1.68-.34A6.12,6.12,0,0,0,87,25.43v3.15a7.14,7.14,0,0,1-1.84.71,10.81,10.81,0,0,1-2.27.25,6.89,6.89,0,0,1-7.2-7.17,8.25,8.25,0,0,1,2-5.74,7.47,7.47,0,0,1,5.79-2.24,7.8,7.8,0,0,1,1.93.25,5.87,5.87,0,0,1,1.55.57v3.22a7.47,7.47,0,0,0-1.61-.89,5,5,0,0,0-1.69-.32,4.19,4.19,0,0,0-3.24,1.32,4.94,4.94,0,0,0-1.25,3.51,4.75,4.75,0,0,0,1.18,3.43,4.34,4.34,0,0,0,3.25,1.22Zm13-12.22a5.71,5.71,0,0,1,.73,0,2.12,2.12,0,0,1,.54.13v3.45a2.45,2.45,0,0,0-.77-.36A3.79,3.79,0,0,0,96,17.56a2.63,2.63,0,0,0-2.11,1.05A5.1,5.1,0,0,0,93,21.85v7.3H89.58V14.71H93V17h0a3.94,3.94,0,0,1,1.41-1.83A3.78,3.78,0,0,1,96.71,14.48Zm1.45,7.67a7.81,7.81,0,0,1,2-5.67,7.4,7.4,0,0,1,5.63-2.09,6.92,6.92,0,0,1,5.29,2A7.58,7.58,0,0,1,113,21.85a7.74,7.74,0,0,1-2,5.6,7.35,7.35,0,0,1-5.52,2.09,7.18,7.18,0,0,1-5.33-2A7.34,7.34,0,0,1,98.16,22.15ZM101.7,22a5.1,5.1,0,0,0,1,3.45,3.67,3.67,0,0,0,3,1.2,3.45,3.45,0,0,0,2.83-1.2,5.55,5.55,0,0,0,1-3.54,5.34,5.34,0,0,0-1-3.51,3.47,3.47,0,0,0-2.81-1.18,3.53,3.53,0,0,0-2.91,1.24A5.19,5.19,0,0,0,101.7,22Zm16.4-3.51a1.35,1.35,0,0,0,.45,1.13,7.71,7.71,0,0,0,2,1,6.88,6.88,0,0,1,2.86,1.84,3.84,3.84,0,0,1,.81,2.47,3.9,3.9,0,0,1-1.56,3.27,6.73,6.73,0,0,1-4.24,1.24,10.47,10.47,0,0,1-2-.22,8.88,8.88,0,0,1-1.84-.55V25.41a8.39,8.39,0,0,0,2,1,6.32,6.32,0,0,0,1.95.39,3.7,3.7,0,0,0,1.71-.32,1.19,1.19,0,0,0,.54-1.09,1.5,1.5,0,0,0-.57-1.18,8.12,8.12,0,0,0-2.15-1.11,6.62,6.62,0,0,1-2.68-1.77,4.18,4.18,0,0,1,.75-5.71,6.21,6.21,0,0,1,4-1.25,10.52,10.52,0,0,1,1.69.16,7,7,0,0,1,1.58.43V18.2a7,7,0,0,0-1.58-.77,5.11,5.11,0,0,0-1.79-.32,2.59,2.59,0,0,0-1.52.39A1.13,1.13,0,0,0,118.1,18.52Zm7.64,3.63a7.86,7.86,0,0,1,2-5.67,7.4,7.4,0,0,1,5.63-2.09,6.89,6.89,0,0,1,5.29,2,7.58,7.58,0,0,1,1.91,5.44,7.74,7.74,0,0,1-2,5.6,7.33,7.33,0,0,1-5.52,2.09,7.19,7.19,0,0,1-5.33-2A7.38,7.38,0,0,1,125.74,22.15Zm3.57-.12a5.15,5.15,0,0,0,1,3.45,3.7,3.7,0,0,0,2.95,1.2,3.47,3.47,0,0,0,2.84-1.2,5.62,5.62,0,0,0,1-3.54,5.4,5.4,0,0,0-1-3.51,4,4,0,0,0-5.72.06A5,5,0,0,0,129.31,22ZM151.9,17.5h-5.07V29.15h-3.44V17.5H141V14.71h2.43v-2A5.08,5.08,0,0,1,144.86,9a5.14,5.14,0,0,1,3.81-1.45,9.69,9.69,0,0,1,1.09.06,5.43,5.43,0,0,1,.84.18v2.95a5.06,5.06,0,0,0-.58-.25,3.62,3.62,0,0,0-1-.13,2.06,2.06,0,0,0-1.65.65,2.92,2.92,0,0,0-.57,2v1.74h5.06V11.44l3.43-1v4.28h3.44v2.79h-3.43v6.76a2.79,2.79,0,0,0,.49,1.88,2.18,2.18,0,0,0,2.22.41,3.94,3.94,0,0,0,.72-.34V29a4,4,0,0,1-1.07.34,8,8,0,0,1-1.46.16A4.24,4.24,0,0,1,153,28.36a4.82,4.82,0,0,1-1.07-3.45Z"/><rect id="Rectangle" class="cls-2" x="0.11" y="1.42" width="16.8" height="16.78"/><rect id="Rectangle-2" data-name="Rectangle" class="cls-3" x="18.68" y="1.4" width="16.8" height="16.78"/><rect id="Rectangle-3" data-name="Rectangle" class="cls-4" y="20.05" width="16.8" height="16.78"/><rect id="Rectangle-4" data-name="Rectangle" class="cls-5" x="18.67" y="20.05" width="16.8" height="16.78"/></svg>
