<svg id="Layer_1" data-name="Layer 1" xmlns="http://www.w3.org/2000/svg" viewBox="0 0 822.67 245.33"><defs><style>.cls-1{fill:#fff;}.cls-2{fill:#ef5125;}.cls-3{fill:#7fba42;}.cls-4{fill:#329fd9;}.cls-5{fill:#fcb713;}</style></defs><g id="Page-3"><g id="Homepage-Copy-1"><g id="Group-4"><g id="Group-5"><path id="Shape" class="cls-1" d="M343.24,143.1l34.89,92.48H360.42l-8.22-23H315.75l-7.92,23h-17.6l34.89-92.48Zm-9.58,17.06L320,199.06h27.71l-13.54-38.9Z"/><polygon id="Path" class="cls-1" points="385.93 169.21 438.94 169.21 438.94 175.45 404.15 223.09 439.15 223.09 439.15 235.47 383.54 235.47 383.54 228.09 417.8 181.59 385.93 181.59 385.93 169.21"/><path id="Path-2" data-name="Path" class="cls-1" d="M505.58,169.21v66.26H489.86v-8.73h-.21a21.14,21.14,0,0,1-8.33,7.07,25,25,0,0,1-11.66,2.49c-7.71,0-13.54-2.18-17.6-6.55s-6-11.13-6-20.28V169.21h15.83v38.38c0,5.62,1.14,9.78,3.33,12.59s5.52,4.27,10,4.27a13.39,13.39,0,0,0,10.63-4.69c2.71-3.12,4-7.17,4-12.17V169.21Z"/><path id="Path-3" data-name="Path" class="cls-1" d="M552.55,168.17a31.8,31.8,0,0,1,3.33.21,10.89,10.89,0,0,1,2.5.62v15.81a12,12,0,0,0-3.54-1.66,17.6,17.6,0,0,0-5.73-.83,12.1,12.1,0,0,0-9.69,4.78c-2.6,3.22-3.95,8.22-3.95,14.88v33.49H519.85V169.21h15.62v10.4h.21a17.2,17.2,0,0,1,16.87-11.44Z"/><path id="Shape-2" data-name="Shape" class="cls-1" d="M614.61,218.83v12.79a32.43,32.43,0,0,1-10.1,4,58.16,58.16,0,0,1-13.33,1.56c-10.1,0-18-3-23.53-8.95s-8.44-14.25-8.44-25c0-10.31,3-18.73,9-25.39a29.29,29.29,0,0,1,22.8-10c9.17,0,16.25,2.81,21.35,8.42s7.61,13.32,7.61,23.2v7.59H574.52c.73,6.66,2.82,11.34,6.46,13.94s8.23,4,13.95,4a33.89,33.89,0,0,0,10.73-1.66A36,36,0,0,0,614.61,218.83Zm-10-23.2c0-5.2-1.15-9-3.54-11.75s-5.73-4.06-10.11-4.06a14.61,14.61,0,0,0-10.09,4.06c-2.92,2.7-5,6.66-5.94,11.86Z"/><path id="Shape-3" data-name="Shape" class="cls-1" d="M391.12,16v92.47h-16V36h-.2l-28.74,72.5H335.52L306,36h-.2v72.5h-14.9V16h23l26.55,68.55h.42L369.05,16h22.07Zm13.44,7.07a8.4,8.4,0,0,1,2.81-6.45,10,10,0,0,1,13.54.1,8.76,8.76,0,0,1,2.7,6.45,8.22,8.22,0,0,1-2.81,6.35,10.21,10.21,0,0,1-6.77,2.6,9.28,9.28,0,0,1-6.77-2.6A9.54,9.54,0,0,1,404.56,23.06ZM421.84,42.2v66.26H406.22V42.2Zm47.39,54.92a24.56,24.56,0,0,0,7.7-1.56,29.5,29.5,0,0,0,7.71-4.26v14.45A31.83,31.83,0,0,1,476.2,109a49.7,49.7,0,0,1-10.41,1.15c-9.79,0-17.7-3.12-23.85-9.27s-9.16-14-9.16-23.6c0-10.62,3.12-19.46,9.37-26.32s15.1-10.3,26.55-10.3a36.73,36.73,0,0,1,8.86,1.14,27.65,27.65,0,0,1,7.08,2.6V59.15a34.3,34.3,0,0,0-7.39-4,22,22,0,0,0-7.71-1.46c-6.15,0-11.14,2-14.9,6S448.92,69,448.92,75.8s1.77,12,5.41,15.7,8.64,5.62,14.9,5.62ZM529.1,41.06c1.15,0,2.29.1,3.33.2a11.32,11.32,0,0,1,2.5.63V57.7A12.3,12.3,0,0,0,531.39,56a17.87,17.87,0,0,0-5.73-.83A12.08,12.08,0,0,0,516,60c-2.6,3.22-4,8.21-4,14.87v33.5H496.41V42.09H512V52.5h.21a17.87,17.87,0,0,1,6.46-8.43A17.4,17.4,0,0,1,529.1,41.06Zm6.67,35.16c0-10.93,3.12-19.67,9.27-26s14.78-9.57,25.82-9.57c10.41,0,18.43,3.12,24.26,9.26s8.75,14.46,8.75,25c0,10.71-3.12,19.35-9.26,25.69s-14.59,9.58-25.31,9.58c-10.31,0-18.43-3-24.48-9S535.77,86.72,535.77,76.22ZM552,75.69c0,7,1.56,12.17,4.69,15.81S564.3,97,570.24,97c5.72,0,10-1.87,13-5.52s4.48-9,4.48-16.22-1.56-12.48-4.58-16.13-7.39-5.4-12.91-5.4c-5.73,0-10.21,1.87-13.33,5.72C553.57,63.21,552,68.72,552,75.69ZM627.2,59.57a6.37,6.37,0,0,0,2.08,5.2c1.45,1.25,4.56,2.91,9.35,4.79,6.29,2.5,10.64,5.3,13.13,8.42a17.61,17.61,0,0,1,3.73,11.34,18,18,0,0,1-7.15,15C643.55,108,637.08,110,628.86,110a45.37,45.37,0,0,1-9.16-1,38.79,38.79,0,0,1-8.43-2.5V91.19a38.12,38.12,0,0,0,9.16,4.69,28.7,28.7,0,0,0,9,1.76c3.53,0,6.14-.52,7.82-1.45a5.36,5.36,0,0,0,2.49-5,6.75,6.75,0,0,0-2.61-5.4c-1.75-1.46-5-3.23-9.88-5.1-5.73-2.39-9.89-5.1-12.29-8.12a18.24,18.24,0,0,1-3.64-11.44,18.26,18.26,0,0,1,7.08-14.77c4.79-3.85,10.93-5.72,18.54-5.72a48.11,48.11,0,0,1,7.78.73,32.92,32.92,0,0,1,7.21,2V58.11a32.34,32.34,0,0,0-7.21-3.53,24.15,24.15,0,0,0-8.22-1.46,11.88,11.88,0,0,0-7,1.77A5.19,5.19,0,0,0,627.2,59.57Zm35.07,16.65c0-10.93,3.17-19.67,9.27-26s14.81-9.57,25.82-9.57c10.45,0,18.48,3.12,24.26,9.26s8.77,14.46,8.77,25c0,10.71-3.11,19.35-9.27,25.69s-14.55,9.58-25.32,9.58q-15.39,0-24.45-9C665.32,94.94,662.27,86.72,662.27,76.22Zm16.36-.53c0,7,1.56,12.17,4.67,15.81S691,97,696.86,97c5.72,0,10-1.87,13-5.52s4.48-9,4.48-16.22-1.55-12.48-4.54-16.13c-3.17-3.64-7.4-5.4-12.94-5.4-5.72,0-10.2,1.87-13.31,5.72C680.19,63.21,678.51,68.72,678.63,75.69Zm103.65-20.8H759v53.47h-15.8V54.89H732.07V42.1h11.14V32.84c0-7,2.3-12.69,6.78-17.17S760.25,9,767.47,9a38.94,38.94,0,0,1,5,.31,22.26,22.26,0,0,1,3.85.83V23.68a19.66,19.66,0,0,0-2.67-1.14,16.15,16.15,0,0,0-4.48-.62,9.53,9.53,0,0,0-7.59,3C759.76,27,759,30,759,34v8h23.2V27.12l15.74-4.79V42h15.8v12.8H798v31c0,4,.75,7,2.24,8.63s3.8,2.49,7,2.49a8.64,8.64,0,0,0,3.24-.62,21,21,0,0,0,3.29-1.56v12.9a20.21,20.21,0,0,1-4.91,1.56,36,36,0,0,1-6.72.73c-6.6,0-11.57-1.77-14.81-5.2S782.34,96,782.34,88.9Z"/><rect id="Rectangle" class="cls-2" x="9.28" y="15.6" width="104.54" height="104.42"/><rect id="Rectangle-2" data-name="Rectangle" class="cls-3" x="124.78" y="15.47" width="104.54" height="104.42"/><rect id="Rectangle-3" data-name="Rectangle" class="cls-4" x="8.56" y="131.5" width="104.54" height="104.42"/><rect id="Rectangle-4" data-name="Rectangle" class="cls-5" x="124.72" y="131.5" width="104.54" height="104.42"/></g></g></g></g></svg>
