<svg id="ubuntu__x5F__white_x26_orange" xmlns="http://www.w3.org/2000/svg" xml:space="preserve" viewBox="0 0 293.2 77.8" version="1.1" y="0" x="0"><style>.st0{fill:#fff}</style><path class="st0" d="M40.8 68.5c-1.7.4-4 .9-6.8 1.4s-6.1.7-9.8.7c-3.2 0-6-.5-8.2-1.4s-4-2.3-5.3-4-2.3-3.8-2.9-6.1-.9-4.9-.9-7.8V27.7h7.5v22c0 5.1.8 8.8 2.4 11S21.1 64 25 64c.8 0 1.6 0 2.5-.1s1.7-.1 2.4-.2c.8-.1 1.4-.2 2.1-.2.6-.1 1.1-.2 1.3-.3V27.7h7.5v40.8zM59.1 29.6c.9-.6 2.3-1.2 4.2-1.9s4-1 6.4-1c3 0 5.7.5 8 1.6s4.3 2.6 5.9 4.5 2.8 4.3 3.7 6.9c.8 2.7 1.3 5.7 1.3 8.9 0 3.4-.5 6.4-1.5 9.2-1 2.7-2.4 5-4.2 6.9s-4 3.3-6.6 4.4c-2.6 1-5.5 1.5-8.7 1.5-3.5 0-6.6-.2-9.3-.7s-4.9-1-6.6-1.5V8.3L59.2 7l-.1 22.6zm0 33.6c.8.2 1.8.4 3.2.6s3.1.3 5.1.3c4 0 7.3-1.3 9.7-4s3.6-6.4 3.6-11.3c0-2.2-.2-4.2-.6-6.1S79 39.2 78 37.8s-2.2-2.5-3.8-3.2-3.4-1.2-5.5-1.2c-2 0-3.9.4-5.7 1.1-1.7.7-3 1.4-4 2.2l.1 26.5zM130.5 68.5c-1.7.4-4 .9-6.8 1.4s-6.1.7-9.8.7c-3.2 0-5.9-.5-8.2-1.4-2.2-.9-4-2.3-5.3-4s-2.3-3.8-2.9-6.1-.9-4.9-.9-7.8V27.7h7.5v22c0 5.1.8 8.8 2.4 11s4.3 3.3 8.2 3.3c.8 0 1.6 0 2.5-.1s1.7-.1 2.4-.2c.8-.1 1.4-.2 2.1-.2.6-.1 1.1-.2 1.3-.3V27.7h7.5v40.8zM141.4 28.9c1.7-.4 4-.9 6.9-1.4s6.1-.7 9.9-.7c3.3 0 6.1.5 8.3 1.4s4 2.3 5.3 4 2.2 3.7 2.8 6.1c.5 2.4.8 5 .8 7.8v23.6h-7.5v-22c0-2.6-.2-4.8-.5-6.6-.4-1.8-.9-3.3-1.7-4.4s-1.9-2-3.2-2.5-3-.8-5-.8c-.8 0-1.6 0-2.5.1s-1.7.1-2.5.2-1.5.2-2.1.3-1.1.2-1.3.2v35.5h-7.5l-.2-40.8zM192.7 27.7h15.9V34h-15.9v19.4c0 2.1.2 3.8.5 5.2s.8 2.5 1.5 3.2c.6.8 1.5 1.3 2.4 1.7 1 .3 2.1.5 3.4.5 2.3 0 4.1-.3 5.5-.8 1.3-.5 2.3-.9 2.7-1.1l1.6 6.1c-.8.4-2.1.9-4 1.5s-4.1.9-6.5.9c-2.9 0-5.2-.4-7.1-1.1s-3.4-1.8-4.5-3.3-1.9-3.2-2.4-5.4c-.5-2.1-.7-4.6-.7-7.4V16l7.5-1.3.1 13zM249.5 68.5c-1.7.4-4 .9-6.8 1.4s-6.1.7-9.8.7c-3.2 0-6-.5-8.2-1.4s-4-2.3-5.3-4c-1.3-1.7-2.3-3.8-2.9-6.1s-.9-4.9-.9-7.8V27.7h7.5v22c0 5.1.8 8.8 2.4 11s4.3 3.3 8.2 3.3c.8 0 1.6 0 2.5-.1s1.7-.1 2.4-.2c.8-.1 1.4-.2 2.1-.2.6-.1 1.1-.2 1.3-.3V27.7h7.5v40.8z"/><circle cy="24" cx="273.4" r="17" fill="#e95420"/><path class="st0" d="M264.8 24c0 1.1-.9 2.1-2.1 2.1-1.1 0-2.1-.9-2.1-2.1 0-1.1.9-2.1 2.1-2.1s2.1 1 2.1 2.1zm11.8 10.1c.6 1 1.8 1.3 2.8.8s1.3-1.8.8-2.8c-.6-1-1.8-1.3-2.8-.8-1.1.5-1.4 1.8-.8 2.8zm3.6-18.1c.6-1 .2-2.3-.8-2.8s-2.3-.2-2.8.8c-.6 1-.2 2.3.8 2.8.9.5 2.2.2 2.8-.8zm-7.1 2.1c3.1 0 5.6 2.4 5.9 5.4h3c-.1-2.2-1.1-4.3-2.6-5.7-.8.3-1.7.3-2.5-.2s-1.3-1.2-1.4-2.1c-.7-.2-1.5-.3-2.3-.3-1.4 0-2.8.3-3.9.9l1.5 2.6c.6-.4 1.5-.6 2.3-.6zm-5.9 5.9c0-2 1-3.8 2.5-4.8l-1.5-2.6c-1.8 1.2-3.1 3-3.7 5.1.7.5 1.1 1.4 1.1 2.3s-.4 1.7-1.1 2.3c.6 2.1 1.9 3.9 3.7 5.1l1.5-2.6c-1.5-1-2.5-2.8-2.5-4.8zm5.9 5.9c-.9 0-1.7-.2-2.5-.5l-1.5 2.6c1.2.6 2.5.9 3.9.9.8 0 1.6-.1 2.3-.3.1-.8.6-1.6 1.4-2.1s1.7-.5 2.5-.2c1.5-1.5 2.5-3.5 2.6-5.8h-3c0 3.1-2.6 5.4-5.7 5.4z"/></svg>